<?xml version="1.0" encoding="UTF-8" standalone="no"?>
<!DOCTYPE svg PUBLIC "-//W3C//DTD SVG 1.1//EN" "http://www.w3.org/Graphics/SVG/1.1/DTD/svg11.dtd">
<svg width="100%" height="100%" viewBox="0 0 1024 1024" version="1.1" xmlns="http://www.w3.org/2000/svg" xmlns:xlink="http://www.w3.org/1999/xlink" xml:space="preserve" xmlns:serif="http://www.serif.com/" style="fill-rule:evenodd;clip-rule:evenodd;stroke-linejoin:round;stroke-miterlimit:2;">
    <g transform="matrix(1.15985,0,0,1.15985,-99.7442,53.7084)">
        <path d="M798.509,327.012C837.794,358.743 863.153,407.03 863.979,461.265C920.564,485.929 960,542.347 960,608C960,696.186 888.374,768 800.018,768L255.982,768C167.44,768 96,696.366 96,608C96,542.372 135.669,485.811 192.381,461.169C192.128,456.812 192,452.421 192,448C192,324.288 292.288,224 416,224C432.689,224 448.952,225.825 464.599,229.287C492.699,169.44 553.51,128 624,128C721.202,128 800,206.798 800,304C800,311.799 799.493,319.48 798.509,327.012ZM767.966,307.173C767.989,306.118 768,305.06 768,304C768,224.471 703.529,160 624,160C618.629,160 613.326,160.294 608.108,160.867C593.534,162.467 579.615,166.242 566.682,171.859C548.247,179.867 531.814,191.62 518.346,206.157C509.385,215.828 501.736,226.732 495.681,238.586C535.79,253.856 570.38,280.318 595.634,314.156C622.483,297.57 654.124,287.999 688.001,287.999C716.794,287.999 743.973,294.913 767.967,307.172L767.966,307.173ZM624,0C615.163,0 608,6.904 608,15.852L608,80.147C608,88.902 615.422,95.999 624,95.999C632.837,95.999 640,89.095 640,80.147L640,15.852C640,7.097 632.578,0 624,0ZM839.458,89.245C833.21,82.997 823.262,82.813 816.935,89.141L771.471,134.605C765.28,140.796 765.51,151.062 771.575,157.128C777.823,163.376 787.771,163.56 794.098,157.232L839.562,111.768C845.753,105.577 845.523,95.311 839.458,89.245ZM928.703,304.703C928.703,295.866 921.799,288.703 912.851,288.703L848.556,288.703C839.801,288.703 832.704,296.125 832.704,304.703C832.704,313.54 839.608,320.703 848.556,320.703L912.851,320.703C921.606,320.703 928.703,313.281 928.703,304.703ZM408.542,89.245C402.294,95.493 402.11,105.441 408.438,111.768L453.902,157.232C460.093,163.423 470.359,163.193 476.425,157.128C482.673,150.88 482.857,140.932 476.529,134.605L431.065,89.141C424.874,82.95 414.608,83.18 408.542,89.245Z" style="fill:rgb(97,164,233);fill-rule:nonzero;"/>
    </g>
    <g transform="matrix(1.15985,0,0,1.15985,-99.7442,53.7084)">
        <path d="M767.966,307.172L768,304C768,224.471 703.529,160 624,160C618.629,160 613.326,160.294 608.108,160.867C593.534,162.467 579.615,166.242 566.682,171.859C548.247,179.867 531.814,191.62 518.346,206.157C509.385,215.828 501.736,226.732 495.681,238.586C535.79,253.856 570.38,280.318 595.634,314.156C622.483,297.57 654.124,287.999 688.001,287.999C716.794,287.999 743.973,294.913 767.966,307.172Z" style="fill:rgb(255,223,120);"/>
    </g>
</svg>
